<svg xmlns="http://www.w3.org/2000/svg" viewBox="0 0 1600 700" preserveAspectRatio="xMidYMid slice">
<defs>
<linearGradient id="sky" x1="0" y1="0" x2="0" y2="1"><stop offset="0" stop-color="#101a35"/><stop offset="1" stop-color="#0a0f1e"/></linearGradient>
<linearGradient id="glow" x1="0" y1="0" x2="1" y2="0"><stop offset="0" stop-color="#f97316" stop-opacity="0"/><stop offset="1" stop-color="#f97316" stop-opacity=".35"/></linearGradient>
</defs>
<rect width="1600" height="700" fill="url(#sky)"/>
<rect width="1600" height="700" fill="url(#glow)" opacity=".5"/>
<g fill="#182240">
<rect x="950" y="260" width="90" height="440"/><rect x="1060" y="180" width="120" height="520"/><rect x="1200" y="300" width="80" height="400"/><rect x="1300" y="220" width="110" height="480"/><rect x="1430" y="340" width="90" height="360"/><rect x="850" y="380" width="80" height="320"/>
</g>
<g fill="#f97316" opacity=".55">
<rect x="1075" y="210" width="10" height="10"/><rect x="1105" y="250" width="10" height="10"/><rect x="1135" y="210" width="10" height="10"/><rect x="1320" y="250" width="10" height="10"/><rect x="1350" y="300" width="10" height="10"/><rect x="965" y="300" width="10" height="10"/><rect x="1215" y="330" width="10" height="10"/><rect x="1445" y="370" width="10" height="10"/>
</g>
<g fill="#d9b36c" opacity=".35">
<rect x="1105" y="320" width="10" height="10"/><rect x="1335" y="380" width="10" height="10"/><rect x="995" y="360" width="10" height="10"/><rect x="1245" y="420" width="10" height="10"/>
</g>
</svg>